<?xml version="1.0" encoding="UTF-8" standalone="no"?>
<!DOCTYPE svg PUBLIC "-//W3C//DTD SVG 1.1//EN" "http://www.w3.org/Graphics/SVG/1.1/DTD/svg11.dtd">
<svg width="100%" height="100%" viewBox="0 0 501 501" version="1.1" xmlns="http://www.w3.org/2000/svg" xmlns:xlink="http://www.w3.org/1999/xlink" xml:space="preserve" xmlns:serif="http://www.serif.com/" style="fill-rule:evenodd;clip-rule:evenodd;stroke-linejoin:round;stroke-miterlimit:2;">
    <g transform="matrix(1,0,0,1,-1152,-1178)">
        <g id="logo_full_alt_z" transform="matrix(0.932754,0,0,1.05464,62.9563,609.172)">
            <rect x="1168" y="540" width="536.047" height="474.095" style="fill:none;"/>
            <clipPath id="_clip1">
                <rect x="1168" y="540" width="536.047" height="474.095"/>
            </clipPath>
            <g clip-path="url(#_clip1)">
                <g transform="matrix(1.12797,0,0,0.99761,-1470.8,5.12256)">
                    <path d="M2709,571.607C2727.12,571.607 2744.49,578.803 2757.3,591.613C2770.11,604.422 2777.31,621.796 2777.31,639.912L2777.31,903.836C2777.31,921.951 2770.11,939.325 2757.3,952.134C2744.49,964.944 2727.12,972.14 2709,972.14L2445.08,972.14C2426.96,972.14 2409.59,964.944 2396.78,952.134C2383.97,939.325 2376.77,921.951 2376.77,903.836L2376.77,639.912C2376.77,621.796 2383.97,604.422 2396.78,591.613C2409.59,578.803 2426.96,571.607 2445.08,571.607L2709,571.607Z" style="fill:rgb(34,36,38);"/>
                </g>
                <g transform="matrix(1.176,0,0,1.176,-252.733,-136.757)">
                    <g transform="matrix(15.4187,0,0,13.6367,1251,613.382)">
                        <path d="M20,13C20,18 16.5,20.5 12.34,21.95C12.122,22.024 11.885,22.02 11.67,21.94C7.5,20.5 4,18 4,13L4,6C4,5.451 4.451,5 5,5C7,5 9.5,3.8 11.24,2.28C11.676,1.908 12.324,1.908 12.76,2.28C14.51,3.81 17,5 19,5C19.549,5 20,5.451 20,6L20,13Z" style="fill:url(#_Linear2);fill-rule:nonzero;"/>
                    </g>
                    <g transform="matrix(12.185,0,0,10.9375,1289.8,647.385)">
                        <path d="M20,13C20,18 16.5,20.5 12.34,21.95C12.122,22.024 11.885,22.02 11.67,21.94C7.5,20.5 4,18 4,13L4,6C4,5.451 4.451,5 5,5C7,5 9.5,3.8 11.24,2.28C11.676,1.908 12.324,1.908 12.76,2.28C14.51,3.81 17,5 19,5C19.549,5 20,5.451 20,6L20,13Z" style="fill:rgb(34,36,38);fill-rule:nonzero;"/>
                    </g>
                    <g transform="matrix(0.910543,0,0,0.80531,166.048,97.886)">
                        <g transform="matrix(186.53,0,0,186.53,1318.72,908.112)">
                            <path d="M0.051,-0L0.051,-0.159L0.533,-0.564L0.051,-0.564L0.051,-0.72L0.771,-0.72L0.771,-0.561L0.289,-0.156L0.771,-0.156L0.771,-0L0.051,-0Z" style="fill:white;fill-rule:nonzero;"/>
                        </g>
                        <g transform="matrix(186.53,0,0,186.53,1471.86,908.112)">
                        </g>
                    </g>
                </g>
                <g transform="matrix(1.10544,0,0,0.977882,-1412.01,12.0571)">
                    <path d="M2818.85,539.884L2818.85,1024.7L2333.93,1024.7L2333.93,539.884L2818.85,539.884ZM2711.04,576.047L2441.74,576.047C2423.26,576.047 2405.53,583.389 2392.46,596.457C2379.39,609.525 2372.04,627.249 2372.04,645.73L2372.04,914.979C2372.04,933.46 2379.39,951.184 2392.46,964.252C2405.53,977.32 2423.26,984.661 2441.74,984.661L2711.04,984.661C2729.53,984.661 2747.26,977.32 2760.33,964.252C2773.4,951.184 2780.74,933.46 2780.74,914.979L2780.74,645.73C2780.74,627.249 2773.4,609.525 2760.33,596.457C2747.26,583.389 2729.53,576.047 2711.04,576.047Z" style="fill:url(#_Linear3);"/>
                </g>
            </g>
        </g>
    </g>
    <defs>
        <linearGradient id="_Linear2" x1="0" y1="0" x2="1" y2="0" gradientUnits="userSpaceOnUse" gradientTransform="matrix(16,20.0021,-20.0021,16,4,2.00076)"><stop offset="0" style="stop-color:rgb(255,128,171);stop-opacity:1"/><stop offset="1" style="stop-color:rgb(216,27,96);stop-opacity:1"/></linearGradient>
        <linearGradient id="_Linear3" x1="0" y1="0" x2="1" y2="0" gradientUnits="userSpaceOnUse" gradientTransform="matrix(484.919,483.871,-483.971,484.819,2333.93,539.884)"><stop offset="0" style="stop-color:rgb(255,128,171);stop-opacity:1"/><stop offset="1" style="stop-color:rgb(216,27,96);stop-opacity:1"/></linearGradient>
    </defs>
</svg>
