<?xml version="1.0" encoding="UTF-8" standalone="no"?>
<!DOCTYPE svg PUBLIC "-//W3C//DTD SVG 1.1//EN" "http://www.w3.org/Graphics/SVG/1.1/DTD/svg11.dtd">
<svg width="100%" height="100%" viewBox="0 0 501 500" version="1.1" xmlns="http://www.w3.org/2000/svg" xmlns:xlink="http://www.w3.org/1999/xlink" xml:space="preserve" xmlns:serif="http://www.serif.com/" style="fill-rule:evenodd;clip-rule:evenodd;stroke-linecap:round;stroke-linejoin:round;">
    <g transform="matrix(1,0,0,1,-1185,0)">
        <g id="wyg-logo" transform="matrix(0.932754,0,0,1.05464,96.5083,-569.506)">
            <rect x="1168" y="540" width="536.047" height="474.095" style="fill:none;"/>
            <clipPath id="_clip1">
                <rect x="1168" y="540" width="536.047" height="474.095"/>
            </clipPath>
            <g clip-path="url(#_clip1)">
                <g transform="matrix(1.10544,0,0,0.977882,-1412.01,12.0571)">
                    <rect x="2333.93" y="539.884" width="484.919" height="484.819" style="fill:url(#_Linear2);"/>
                </g>
                <g transform="matrix(1.12797,0,0,0.99761,-1470.8,7.01894)">
                    <path d="M2709,571.607C2727.12,571.607 2744.49,578.803 2757.3,591.613C2770.11,604.422 2777.31,621.796 2777.31,639.912L2777.31,903.836C2777.31,921.951 2770.11,939.325 2757.3,952.134C2744.49,964.944 2727.12,972.14 2709,972.14L2445.08,972.14C2426.96,972.14 2409.59,964.944 2396.78,952.134C2383.97,939.325 2376.77,921.951 2376.77,903.836L2376.77,639.912C2376.77,621.796 2383.97,604.422 2396.78,591.613C2409.59,578.803 2426.96,571.607 2445.08,571.607L2709,571.607Z" style="fill:rgb(34,36,38);"/>
                </g>
                <g transform="matrix(16.1785,0,0,14.3088,1241.88,605.337)">
                    <path d="M2.992,16.342C3.139,16.713 3.172,17.119 3.086,17.509L2.021,20.799C2.007,20.865 2,20.933 2,21C2,21.549 2.452,22 3,22C3.087,22 3.173,21.989 3.257,21.967L6.67,20.969C7.038,20.896 7.419,20.928 7.769,21.061C9.094,21.68 10.538,22 12,22C17.486,22 22,17.486 22,12C22,6.514 17.486,2 12,2C6.514,2 2,6.514 2,12C2,13.504 2.339,14.988 2.992,16.342" style="fill:rgb(50,53,56);fill-rule:nonzero;stroke:white;stroke-width:1.33px;"/>
                </g>
                <g id="sword" transform="matrix(0.360728,0,0,0.360728,914.424,505.977)">
                    <g transform="matrix(1.081,0,0,0.956064,-147.597,11.7352)">
                        <path d="M1309.93,1048.42L1217.02,1048.42L1217.02,1017.45L1278.96,1017.45L1278.96,986.484L1309.93,986.484L1309.93,1048.42Z" style="fill:rgb(63,46,14);"/>
                    </g>
                    <g transform="matrix(1.081,0,0,0.956064,-114.119,-17.874)">
                        <rect x="1217.02" y="1017.45" width="30.97" height="30.97" style="fill:rgb(220,150,19);"/>
                    </g>
                    <g transform="matrix(1.081,0,0,0.956064,-147.597,-17.874)">
                        <path d="M1217.02,1048.42L1217.02,986.484L1278.96,986.484L1278.96,1017.45L1247.99,1017.45L1247.99,1048.42L1217.02,1048.42Z" style="fill:rgb(130,93,22);"/>
                    </g>
                    <g transform="matrix(1.081,0,0,0.956064,-80.6406,-47.4831)">
                        <rect x="1217.02" y="1017.45" width="30.97" height="30.97" style="fill:rgb(104,78,30);"/>
                    </g>
                    <g transform="matrix(1.081,0,0,0.956064,-13.6841,-106.701)">
                        <rect x="1217.02" y="1017.45" width="30.97" height="30.97" style="fill:rgb(104,78,30);"/>
                    </g>
                    <g transform="matrix(1.081,0,0,0.956064,-80.6406,-77.0922)">
                        <rect x="1217.02" y="1017.45" width="30.97" height="30.97" style="fill:rgb(73,54,21);"/>
                    </g>
                    <g transform="matrix(1.081,0,0,0.956064,-47.1624,-106.701)">
                        <rect x="1217.02" y="1017.45" width="30.97" height="30.97" style="fill:rgb(73,54,21);"/>
                    </g>
                    <g transform="matrix(1.081,0,0,0.956064,19.7941,-106.701)">
                        <rect x="1217.02" y="1017.45" width="30.97" height="30.97" style="fill:rgb(73,54,21);"/>
                    </g>
                    <g transform="matrix(1.081,0,0,0.956064,53.2724,-106.701)">
                        <path d="M1217.02,1048.42L1217.02,986.484L1247.99,986.484L1247.99,1017.45L1278.96,1017.45L1278.96,1048.42L1217.02,1048.42Z" style="fill:rgb(130,93,22);"/>
                    </g>
                    <g transform="matrix(1.081,0,0,0.956064,53.2724,-77.0922)">
                        <rect x="1217.02" y="1017.45" width="61.94" height="30.97" style="fill:rgb(63,46,14);"/>
                    </g>
                    <g transform="matrix(1.081,0,0,0.956064,120.426,-47.4831)">
                        <path d="M1278.78,1048.42L1217.02,1048.42L1217.02,1017.45L1247.8,1017.45L1247.8,986.484L1278.77,986.484L1278.77,1017.45L1278.78,1017.45L1278.78,1048.42Z" style="fill:rgb(63,46,14);"/>
                    </g>
                    <g transform="matrix(1.081,0,0,0.956064,120.229,-106.701)">
                        <rect x="1217.02" y="1017.45" width="30.97" height="30.97" style="fill:rgb(63,46,14);"/>
                    </g>
                    <g transform="matrix(1.081,0,0,0.956064,86.7506,-136.31)">
                        <rect x="1217.02" y="1017.45" width="30.97" height="30.97" style="fill:rgb(63,46,14);"/>
                    </g>
                    <g transform="matrix(1.081,0,0,0.956064,120.229,-77.0922)">
                        <rect x="1217.02" y="1017.45" width="30.97" height="30.97" style="fill:rgb(130,93,22);"/>
                    </g>
                    <g transform="matrix(1.081,0,0,0.956064,120.229,-106.701)">
                        <rect x="1217.02" y="1017.45" width="30.97" height="30.97" style="fill:rgb(63,46,14);"/>
                    </g>
                    <g transform="matrix(1.081,0,0,0.956064,19.7941,-136.31)">
                        <rect x="1217.02" y="1017.45" width="30.97" height="30.97" style="fill:rgb(220,150,19);"/>
                    </g>
                    <g transform="matrix(1.081,0,0,0.956064,53.2724,-165.92)">
                        <rect x="1217.02" y="1017.45" width="30.97" height="30.97" style="fill:rgb(220,150,19);"/>
                    </g>
                    <g transform="matrix(1.081,0,0,0.956064,53.4725,-195.703)">
                        <rect x="1217.02" y="1017.45" width="30.97" height="30.97" style="fill:rgb(253,255,118);"/>
                    </g>
                    <g transform="matrix(1.081,0,0,0.956064,86.9507,-225.313)">
                        <rect x="1217.02" y="1017.45" width="30.97" height="30.97" style="fill:rgb(253,255,118);"/>
                    </g>
                    <g transform="matrix(1.081,0,0,0.956064,120.426,-254.922)">
                        <rect x="1217.02" y="1017.45" width="30.97" height="30.97" style="fill:rgb(253,255,118);"/>
                    </g>
                    <g transform="matrix(1.081,0,0,0.956064,153.907,-284.531)">
                        <rect x="1217.02" y="1017.45" width="30.97" height="30.97" style="fill:white;"/>
                    </g>
                    <g transform="matrix(1.081,0,0,0.956064,187.386,-314.14)">
                        <rect x="1217.02" y="1017.45" width="30.97" height="30.97" style="fill:white;"/>
                    </g>
                    <g transform="matrix(1.081,0,0,0.956064,220.864,-343.749)">
                        <rect x="1217.02" y="1017.45" width="30.97" height="30.97" style="fill:white;"/>
                    </g>
                    <g transform="matrix(1.081,0,0,0.956064,254.342,-373.358)">
                        <rect x="1217.02" y="1017.45" width="30.97" height="30.97" style="fill:white;"/>
                    </g>
                    <g transform="matrix(1.081,0,0,0.956064,287.82,-402.967)">
                        <path d="M1248.17,1048.42L1217.02,1048.42L1217.02,1017.45L1278.96,1017.45L1278.96,1048.24L1279.14,1048.24L1279.14,1079.21L1248.17,1079.21L1248.17,1048.42Z" style="fill:white;"/>
                    </g>
                    <g transform="matrix(1.081,0,0,0.956064,287.82,-343.924)">
                        <rect x="1217.02" y="1017.45" width="30.97" height="30.97" style="fill:white;"/>
                    </g>
                    <g transform="matrix(1.081,0,0,0.956064,254.342,-314.315)">
                        <rect x="1217.02" y="1017.45" width="30.97" height="30.97" style="fill:rgb(253,255,118);"/>
                    </g>
                    <g transform="matrix(1.081,0,0,0.956064,220.864,-284.705)">
                        <rect x="1217.02" y="1017.45" width="30.97" height="30.97" style="fill:rgb(253,255,118);"/>
                    </g>
                    <g transform="matrix(1.081,0,0,0.956064,254.342,-284.705)">
                        <rect x="1217.02" y="1017.45" width="30.97" height="30.97" style="fill:rgb(63,46,14);"/>
                    </g>
                    <g transform="matrix(1.081,0,0,0.956064,220.864,-255.096)">
                        <rect x="1217.02" y="1017.45" width="30.97" height="30.97" style="fill:rgb(63,46,14);"/>
                    </g>
                    <g transform="matrix(1.081,0,0,0.956064,153.907,-225.313)">
                        <rect x="1217.02" y="1017.45" width="30.97" height="30.97" style="fill:rgb(253,255,118);"/>
                    </g>
                    <g transform="matrix(1.081,0,0,0.956064,187.386,-254.922)">
                        <rect x="1217.02" y="1017.45" width="30.97" height="30.97" style="fill:rgb(253,255,118);"/>
                    </g>
                    <g transform="matrix(1.081,0,0,0.956064,120.429,-225.313)">
                        <rect x="1217.02" y="1017.45" width="30.97" height="30.97" style="fill:rgb(234,238,87);"/>
                    </g>
                    <g transform="matrix(1.081,0,0,0.956064,153.907,-254.922)">
                        <rect x="1217.02" y="1017.45" width="30.97" height="30.97" style="fill:rgb(234,238,87);"/>
                    </g>
                    <g transform="matrix(1.081,0,0,0.956064,187.386,-284.705)">
                        <rect x="1217.02" y="1017.45" width="30.97" height="30.97" style="fill:rgb(234,238,87);"/>
                    </g>
                    <g transform="matrix(1.081,0,0,0.956064,220.864,-314.315)">
                        <rect x="1217.02" y="1017.45" width="30.97" height="30.97" style="fill:rgb(234,238,87);"/>
                    </g>
                    <g transform="matrix(1.081,0,0,0.956064,254.342,-343.924)">
                        <rect x="1217.02" y="1017.45" width="30.97" height="30.97" style="fill:rgb(234,238,87);"/>
                    </g>
                    <g transform="matrix(1.081,0,0,0.956064,287.82,-373.533)">
                        <rect x="1217.02" y="1017.45" width="30.97" height="30.97" style="fill:rgb(234,238,87);"/>
                    </g>
                    <g transform="matrix(1.081,0,0,0.956064,120.429,-195.529)">
                        <rect x="1217.02" y="1017.45" width="30.97" height="30.97" style="fill:rgb(253,255,118);"/>
                    </g>
                    <g transform="matrix(1.081,0,0,0.956064,86.9507,-166.094)">
                        <rect x="1217.02" y="1017.45" width="30.97" height="30.97" style="fill:rgb(253,255,118);"/>
                    </g>
                    <g transform="matrix(1.081,0,0,0.956064,86.9481,-195.529)">
                        <rect x="1217.02" y="1017.45" width="30.97" height="30.97" style="fill:rgb(233,177,21);"/>
                    </g>
                    <g transform="matrix(1.081,0,0,0.956064,120.426,-166.094)">
                        <rect x="1217.02" y="1017.45" width="30.97" height="30.97" style="fill:rgb(63,46,14);"/>
                    </g>
                    <g transform="matrix(1.081,0,0,0.956064,153.907,-195.703)">
                        <rect x="1217.02" y="1017.45" width="30.97" height="30.97" style="fill:rgb(63,46,14);"/>
                    </g>
                    <g transform="matrix(1.081,0,0,0.956064,187.386,-225.313)">
                        <rect x="1217.02" y="1017.45" width="30.97" height="30.97" style="fill:rgb(63,46,14);"/>
                    </g>
                    <g transform="matrix(1.081,0,0,0.956064,53.4699,-225.313)">
                        <rect x="1217.02" y="1017.45" width="30.97" height="30.97" style="fill:rgb(130,93,22);"/>
                    </g>
                    <g transform="matrix(1.081,0,0,0.956064,86.9481,-254.922)">
                        <rect x="1217.02" y="1017.45" width="30.97" height="30.97" style="fill:rgb(130,93,22);"/>
                    </g>
                    <g transform="matrix(1.081,0,0,0.956064,120.429,-284.531)">
                        <rect x="1217.02" y="1017.45" width="30.97" height="30.97" style="fill:rgb(130,93,22);"/>
                    </g>
                    <g transform="matrix(1.081,0,0,0.956064,153.907,-314.14)">
                        <rect x="1217.02" y="1017.45" width="30.97" height="30.97" style="fill:rgb(130,93,22);"/>
                    </g>
                    <g transform="matrix(1.081,0,0,0.956064,187.386,-343.749)">
                        <rect x="1217.02" y="1017.45" width="30.97" height="30.97" style="fill:rgb(130,93,22);"/>
                    </g>
                    <g transform="matrix(1.081,0,0,0.956064,220.864,-373.358)">
                        <rect x="1217.02" y="1017.45" width="30.97" height="30.97" style="fill:rgb(130,93,22);"/>
                    </g>
                    <g transform="matrix(1.081,0,0,0.956064,254.342,-402.967)">
                        <rect x="1217.02" y="1017.45" width="30.97" height="30.97" style="fill:rgb(130,93,22);"/>
                    </g>
                    <g transform="matrix(1.081,0,0,0.956064,287.82,-432.751)">
                        <path d="M1247.99,1017.45L1247.99,1048.42L1217.02,1048.42L1217.02,1017.45L1247.99,1017.45ZM1309.93,1017.45L1309.93,1048.42L1278.96,1048.42L1278.96,1017.45L1309.93,1017.45Z" style="fill:rgb(130,93,22);"/>
                    </g>
                    <g transform="matrix(1.081,0,0,0.956064,321.299,-432.751)">
                        <rect x="1217.02" y="1017.45" width="30.97" height="30.97" style="fill:rgb(130,93,22);"/>
                    </g>
                    <g transform="matrix(1.081,0,0,0.956064,354.972,-403.142)">
                        <rect x="1217.02" y="1017.45" width="30.97" height="61.94" style="fill:rgb(63,46,14);"/>
                    </g>
                    <g transform="matrix(1.081,0,0,0.956064,321.299,-343.924)">
                        <rect x="1217.02" y="1017.45" width="30.97" height="30.97" style="fill:rgb(63,46,14);"/>
                    </g>
                    <g transform="matrix(1.081,0,0,0.956064,288.015,-314.315)">
                        <rect x="1217.02" y="1017.45" width="30.97" height="30.97" style="fill:rgb(63,46,14);"/>
                    </g>
                    <g transform="matrix(1.081,0,0,0.956064,19.7941,-165.92)">
                        <path d="M1186.05,1048.42L1186.05,986.484L1217.02,986.484L1217.02,1017.45L1247.99,1017.45L1247.99,1048.42L1186.05,1048.42Z" style="fill:rgb(233,177,21);"/>
                    </g>
                    <g transform="matrix(1.081,0,0,0.956064,19.7941,-195.529)">
                        <rect x="1217.02" y="1017.45" width="30.97" height="30.97" style="fill:rgb(63,46,14);"/>
                    </g>
                    <g transform="matrix(1.081,0,0,0.956064,-47.1624,-165.92)">
                        <rect x="1217.02" y="986.484" width="30.97" height="61.94" style="fill:rgb(130,93,22);"/>
                    </g>
                    <g transform="matrix(1.081,0,0,0.956064,-13.6841,-225.138)">
                        <rect x="1217.02" y="1017.45" width="30.97" height="30.97" style="fill:rgb(130,93,22);"/>
                    </g>
                    <g transform="matrix(1.081,0,0,0.956064,-47.1624,-225.138)">
                        <rect x="1217.02" y="1017.45" width="30.97" height="30.97" style="fill:rgb(220,150,19);"/>
                    </g>
                    <g transform="matrix(1.081,0,0,0.956064,-80.6406,-225.138)">
                        <path d="M1217.02,1048.42L1217.02,986.484L1278.96,986.484L1278.96,1017.45L1247.99,1017.45L1247.99,1048.42L1217.02,1048.42Z" style="fill:rgb(130,93,22);"/>
                    </g>
                    <g transform="matrix(1.081,0,0,0.956064,-13.6841,-136.31)">
                        <rect x="1217.02" y="1017.45" width="30.97" height="30.97" style="fill:rgb(130,93,22);"/>
                    </g>
                    <g transform="matrix(1.081,0,0,0.956064,-47.1624,-47.4831)">
                        <rect x="1217.02" y="1017.45" width="30.97" height="30.97" style="fill:rgb(40,30,11);"/>
                    </g>
                    <g transform="matrix(1.081,0,0,0.956064,-13.6841,-77.0922)">
                        <rect x="1217.02" y="1017.45" width="30.97" height="30.97" style="fill:rgb(40,30,11);"/>
                    </g>
                    <g transform="matrix(1.081,0,0,0.956064,-47.1624,-77.0922)">
                        <rect x="1217.02" y="1017.45" width="30.97" height="30.97" style="fill:rgb(137,103,39);"/>
                    </g>
                </g>
            </g>
        </g>
    </g>
    <defs>
        <linearGradient id="_Linear2" x1="0" y1="0" x2="1" y2="0" gradientUnits="userSpaceOnUse" gradientTransform="matrix(484.919,484.819,-484.919,484.819,2333.93,539.884)"><stop offset="0" style="stop-color:rgb(241,196,15);stop-opacity:1"/><stop offset="1" style="stop-color:rgb(212,172,13);stop-opacity:1"/></linearGradient>
    </defs>
</svg>
