<?xml version="1.0" encoding="UTF-8" standalone="no"?>
<!DOCTYPE svg PUBLIC "-//W3C//DTD SVG 1.1//EN" "http://www.w3.org/Graphics/SVG/1.1/DTD/svg11.dtd">
<svg width="100%" height="100%" viewBox="0 0 500 501" version="1.1" xmlns="http://www.w3.org/2000/svg" xmlns:xlink="http://www.w3.org/1999/xlink" xml:space="preserve" xmlns:serif="http://www.serif.com/" style="fill-rule:evenodd;clip-rule:evenodd;stroke-linecap:round;stroke-linejoin:round;stroke-miterlimit:1.5;">
    <g transform="matrix(1,0,0,1,-6,-1118)">
        <g id="LifeStealZ_logo" transform="matrix(0.932754,0,0,1.05464,-1083.46,549.379)">
            <rect x="1168" y="540" width="536.047" height="474.095" style="fill:none;"/>
            <clipPath id="_clip1">
                <rect x="1168" y="540" width="536.047" height="474.095"/>
            </clipPath>
            <g clip-path="url(#_clip1)">
                <g transform="matrix(0.669174,0,0,0.669174,468.942,256.054)">
                    <g transform="matrix(1.07209,0,0,0.948191,-84.2058,27.977)">
                        <path d="M1198.48,822.607C1198.48,822.607 1181.7,685.028 1337.55,627.141C1488.33,571.139 1609.22,656.079 1644.85,734.196C1690.36,833.949 1607.58,953.484 1516.2,972.293C1424.83,991.102 1218.42,993.041 1198.48,822.607Z" style="fill:rgb(232,152,80);stroke:rgb(185,115,53);stroke-width:22.42px;"/>
                    </g>
                    <g transform="matrix(1.24155,0,0,1.25013,-238.31,-120.971)">
                        <ellipse cx="1337.14" cy="729.241" rx="31.303" ry="28.271" style="fill:rgb(217,131,62);"/>
                    </g>
                    <g transform="matrix(1.70604,0,0,1.83314,-949.287,-482.77)">
                        <ellipse cx="1337.14" cy="729.241" rx="31.303" ry="28.271" style="fill:rgb(217,131,62);"/>
                    </g>
                    <g transform="matrix(1.73875,0,0,1.54285,-853.741,-228.02)">
                        <ellipse cx="1337.14" cy="729.241" rx="31.303" ry="28.271" style="fill:rgb(217,131,62);"/>
                    </g>
                    <g transform="matrix(1.29452,0,0,1.22146,-281.587,-101.207)">
                        <ellipse cx="1337.14" cy="729.241" rx="31.303" ry="28.271" style="fill:rgb(139,75,43);"/>
                    </g>
                    <g transform="matrix(1.11325,0,0,1.05042,-103.491,-86.968)">
                        <ellipse cx="1337.14" cy="729.241" rx="31.303" ry="28.271" style="fill:rgb(217,131,62);"/>
                    </g>
                    <g transform="matrix(1.33844,0,0,1.12898,-441.707,-107.635)">
                        <ellipse cx="1337.14" cy="729.241" rx="31.303" ry="28.271" style="fill:rgb(217,131,62);"/>
                    </g>
                    <g transform="matrix(1.11325,0,0,1.05042,4.59701,-76.092)">
                        <ellipse cx="1337.14" cy="729.241" rx="31.303" ry="28.271" style="fill:rgb(217,131,62);"/>
                    </g>
                    <g transform="matrix(1.63074,0,0,1.07933,-641.053,-51.9821)">
                        <ellipse cx="1337.14" cy="729.241" rx="31.303" ry="28.271" style="fill:rgb(217,131,62);"/>
                    </g>
                    <g transform="matrix(0.933859,0,0,0.881152,18.822,106.153)">
                        <ellipse cx="1337.14" cy="729.241" rx="31.303" ry="28.271" style="fill:rgb(139,75,43);"/>
                    </g>
                    <g transform="matrix(1.11325,0,0,1.05042,143.062,-20.3927)">
                        <ellipse cx="1337.14" cy="729.241" rx="31.303" ry="28.271" style="fill:rgb(217,131,62);"/>
                    </g>
                    <g transform="matrix(0.933859,0,0,0.881152,387.569,99.2203)">
                        <ellipse cx="1337.14" cy="729.241" rx="31.303" ry="28.271" style="fill:rgb(139,75,43);"/>
                    </g>
                    <g transform="matrix(1.39214,0,0,1.31357,-263.701,-131.182)">
                        <ellipse cx="1337.14" cy="729.241" rx="31.303" ry="28.271" style="fill:rgb(139,75,43);"/>
                    </g>
                    <g transform="matrix(1.54833,0,0,1.46094,-592.19,-163.97)">
                        <ellipse cx="1337.14" cy="729.241" rx="31.303" ry="28.271" style="fill:rgb(139,75,43);"/>
                    </g>
                    <g transform="matrix(1.94456,0,0,1.74233,-1285.68,-426.196)">
                        <ellipse cx="1337.14" cy="729.241" rx="31.303" ry="28.271" style="fill:rgb(139,75,43);"/>
                    </g>
                    <g transform="matrix(1.99982,0,0,1.98088,-1137.19,-744.593)">
                        <ellipse cx="1337.14" cy="729.241" rx="31.303" ry="28.271" style="fill:rgb(139,75,43);"/>
                    </g>
                    <g transform="matrix(1.63033,0,0,1.53831,-817.876,-420.907)">
                        <ellipse cx="1337.14" cy="729.241" rx="31.303" ry="28.271" style="fill:rgb(139,75,43);"/>
                    </g>
                </g>
                <g transform="matrix(1.10544,0,0,0.977882,-1412.01,12.0571)">
                    <rect x="2333.93" y="539.884" width="484.919" height="484.819" style="fill:rgb(255,0,2);"/>
                </g>
                <g transform="matrix(1.12797,0,0,0.99761,-1470.8,7.01894)">
                    <path d="M2709,571.607C2727.12,571.607 2744.49,578.803 2757.3,591.613C2770.11,604.422 2777.31,621.796 2777.31,639.912L2777.31,903.836C2777.31,921.951 2770.11,939.325 2757.3,952.134C2744.49,964.944 2727.12,972.14 2709,972.14L2445.08,972.14C2426.96,972.14 2409.59,964.944 2396.78,952.134C2383.97,939.325 2376.77,921.951 2376.77,903.836L2376.77,639.912C2376.77,621.796 2383.97,604.422 2396.78,591.613C2409.59,578.803 2426.96,571.607 2445.08,571.607L2709,571.607Z" style="fill:rgb(34,36,38);"/>
                </g>
                <g id="Heart" transform="matrix(0.304687,0,0,0.269474,1271.49,631.532)">
                    <g transform="matrix(1.024,0,0,1.05468,105.932,-179.055)">
                        <rect x="482.488" y="966.221" width="117.187" height="113.779"/>
                    </g>
                    <g transform="matrix(1.024,0,0,1.05468,-14.0677,-59.0546)">
                        <rect x="482.488" y="966.221" width="117.187" height="113.779"/>
                    </g>
                    <g transform="matrix(1.024,0,0,1.05468,-134.068,-179.055)">
                        <rect x="482.488" y="966.221" width="117.187" height="113.779"/>
                    </g>
                    <g transform="matrix(1.024,0,0,1.05468,225.932,-299.055)">
                        <rect x="482.488" y="966.221" width="117.187" height="113.779"/>
                    </g>
                    <g transform="matrix(1.024,0,0,1.05468,345.932,-419.055)">
                        <rect x="482.488" y="966.221" width="117.187" height="113.779"/>
                    </g>
                    <g transform="matrix(1.024,0,0,1.05468,-254.068,-299.055)">
                        <rect x="482.488" y="966.221" width="117.187" height="113.779"/>
                    </g>
                    <g transform="matrix(1.024,0,0,1.05468,-374.068,-419.055)">
                        <rect x="482.488" y="966.221" width="117.187" height="113.779"/>
                    </g>
                    <g transform="matrix(1.024,0,0,1.05468,465.932,-539.055)">
                        <rect x="482.488" y="738.664" width="117.187" height="341.336"/>
                    </g>
                    <g transform="matrix(1.024,0,0,1.05468,-494.068,-539.055)">
                        <rect x="482.488" y="738.664" width="117.187" height="341.336"/>
                    </g>
                    <g transform="matrix(1.024,0,0,1.05468,-374.068,-899.055)">
                        <rect x="482.488" y="966.221" width="117.187" height="113.779"/>
                    </g>
                    <g transform="matrix(1.024,0,0,1.05468,-254.068,-1019.05)">
                        <rect x="482.488" y="966.221" width="234.375" height="113.779"/>
                    </g>
                    <g transform="matrix(1.024,0,0,1.05468,-14.0677,-899.055)">
                        <rect x="482.488" y="966.221" width="117.187" height="113.779"/>
                    </g>
                    <g transform="matrix(1.024,0,0,1.05468,105.932,-1019.05)">
                        <rect x="482.488" y="966.221" width="234.375" height="113.779"/>
                    </g>
                    <g transform="matrix(1.024,0,0,1.05468,345.932,-899.055)">
                        <rect x="482.488" y="966.221" width="117.187" height="113.779"/>
                    </g>
                    <g transform="matrix(1.024,0,0,1.05468,-14.0677,-179.055)">
                        <rect x="482.488" y="966.221" width="117.187" height="113.779" style="fill:rgb(187,18,18);"/>
                    </g>
                    <g transform="matrix(1.024,0,0,1.05468,-14.0677,-179.055)">
                        <rect x="482.488" y="966.221" width="117.187" height="113.779" style="fill:rgb(187,18,18);"/>
                    </g>
                    <g transform="matrix(1.024,0,0,1.05468,225.932,-419.032)">
                        <rect x="482.488" y="966.221" width="117.187" height="113.779" style="fill:rgb(187,18,18);"/>
                    </g>
                    <g transform="matrix(1.024,0,0,1.05468,345.932,-539.055)">
                        <rect x="482.488" y="966.221" width="117.187" height="113.779" style="fill:rgb(187,18,18);"/>
                    </g>
                    <g transform="matrix(1.024,0,0,1.05468,-134.068,-299.032)">
                        <rect x="482.488" y="966.221" width="117.187" height="113.779" style="fill:rgb(187,18,18);"/>
                    </g>
                    <g transform="matrix(1.024,0,0,1.05468,-254.068,-419.055)">
                        <rect x="482.488" y="966.221" width="117.187" height="113.779" style="fill:rgb(187,18,18);"/>
                    </g>
                    <g transform="matrix(1.024,0,0,1.05468,-374.068,-539.055)">
                        <rect x="482.488" y="966.221" width="117.187" height="113.779" style="fill:rgb(187,18,18);"/>
                    </g>
                    <g transform="matrix(1.024,0,0,1.05468,-14.0677,-299.032)">
                        <path d="M130.925,738.643L130.925,511.086L248.113,511.086L248.113,738.643L130.925,738.643ZM248.113,511.086L248.113,397.308L482.488,397.308L482.488,511.086L599.675,511.086L599.675,397.308L834.05,397.308L834.05,511.086L716.862,511.086L716.862,624.865L599.675,624.865L599.675,852.422L716.862,852.422L716.862,966.2L365.3,966.2L365.3,852.422L482.488,852.422L482.488,624.865L365.3,624.865L365.3,511.086L248.113,511.086ZM834.05,511.086L951.237,511.086L951.237,738.643L834.05,738.643L834.05,511.086ZM834.05,738.643L834.05,852.422L716.862,852.422L716.862,738.643L834.05,738.643ZM365.3,852.422L248.113,852.422L248.113,738.643L365.3,738.643L365.3,852.422ZM599.675,966.221L599.675,1080L482.488,1080L482.488,966.221L599.675,966.221Z" style="fill:rgb(255,0,2);"/>
                    </g>
                    <g transform="matrix(1.024,0,0,1.05468,345.932,-659.055)">
                        <rect x="482.488" y="966.221" width="117.187" height="113.779" style="fill:rgb(255,0,2);"/>
                    </g>
                    <g transform="matrix(1.024,0,0,1.05468,345.932,-779.055)">
                        <rect x="482.488" y="966.221" width="117.187" height="113.779" style="fill:rgb(255,0,2);"/>
                    </g>
                    <g transform="matrix(1.024,0,0,1.05468,225.932,-659.055)">
                        <path d="M365.3,1193.78L365.3,966.221L482.488,966.221L482.488,852.443L599.675,852.443L599.675,1080L482.488,1080L482.488,1193.78L365.3,1193.78Z" style="fill:rgb(96,8,6);"/>
                    </g>
                    <g transform="matrix(1.024,0,0,1.05468,-134.068,-539.055)">
                        <path d="M365.3,966.221L365.3,738.664L482.488,738.664L482.488,852.443L599.675,852.443L599.675,1080L482.488,1080L482.488,966.221L365.3,966.221Z" style="fill:rgb(96,8,6);"/>
                    </g>
                    <g transform="matrix(1.024,0,0,1.05468,-14.0677,-179.055)">
                        <rect x="482.488" y="966.221" width="117.187" height="113.779" style="fill:rgb(187,18,18);"/>
                    </g>
                    <g transform="matrix(1.024,0,0,1.05468,105.932,-299.032)">
                        <rect x="482.488" y="966.221" width="117.187" height="113.779" style="fill:rgb(187,18,18);"/>
                    </g>
                </g>
            </g>
        </g>
    </g>
</svg>
