<?xml version="1.0" encoding="UTF-8" standalone="no"?>
<!DOCTYPE svg PUBLIC "-//W3C//DTD SVG 1.1//EN" "http://www.w3.org/Graphics/SVG/1.1/DTD/svg11.dtd">
<svg width="100%" height="100%" viewBox="0 0 501 501" version="1.1" xmlns="http://www.w3.org/2000/svg" xmlns:xlink="http://www.w3.org/1999/xlink" xml:space="preserve" xmlns:serif="http://www.serif.com/" style="fill-rule:evenodd;clip-rule:evenodd;stroke-linecap:round;stroke-linejoin:round;stroke-miterlimit:1.5;">
    <g transform="matrix(1,0,0,1,-2377,-539)">
        <g id="Logo-NoBG-blue" serif:id="Logo NoBG blue" transform="matrix(0.932754,0,0,1.05464,1288.23,-29.6215)">
            <rect x="1168" y="540" width="536.047" height="474.095" style="fill:none;"/>
            <clipPath id="_clip1">
                <rect x="1168" y="540" width="536.047" height="474.095"/>
            </clipPath>
            <g clip-path="url(#_clip1)">
                <g transform="matrix(0.669174,0,0,0.669174,468.942,256.054)">
                    <g transform="matrix(1.07209,0,0,0.948191,-84.2058,27.977)">
                        <path d="M1198.48,822.607C1198.48,822.607 1181.7,685.028 1337.55,627.141C1488.33,571.139 1609.22,656.079 1644.85,734.196C1690.36,833.949 1607.58,953.484 1516.2,972.293C1424.83,991.102 1218.42,993.041 1198.48,822.607Z" style="fill:rgb(232,152,80);stroke:rgb(185,115,53);stroke-width:22.42px;"/>
                    </g>
                    <g transform="matrix(1.24155,0,0,1.25013,-238.31,-120.971)">
                        <ellipse cx="1337.14" cy="729.241" rx="31.303" ry="28.271" style="fill:rgb(217,131,62);"/>
                    </g>
                    <g transform="matrix(1.70604,0,0,1.83314,-949.287,-482.77)">
                        <ellipse cx="1337.14" cy="729.241" rx="31.303" ry="28.271" style="fill:rgb(217,131,62);"/>
                    </g>
                    <g transform="matrix(1.73875,0,0,1.54285,-853.741,-228.02)">
                        <ellipse cx="1337.14" cy="729.241" rx="31.303" ry="28.271" style="fill:rgb(217,131,62);"/>
                    </g>
                    <g transform="matrix(1.29452,0,0,1.22146,-281.587,-101.207)">
                        <ellipse cx="1337.14" cy="729.241" rx="31.303" ry="28.271" style="fill:rgb(139,75,43);"/>
                    </g>
                    <g transform="matrix(1.11325,0,0,1.05042,-103.491,-86.968)">
                        <ellipse cx="1337.14" cy="729.241" rx="31.303" ry="28.271" style="fill:rgb(217,131,62);"/>
                    </g>
                    <g transform="matrix(1.33844,0,0,1.12898,-441.707,-107.635)">
                        <ellipse cx="1337.14" cy="729.241" rx="31.303" ry="28.271" style="fill:rgb(217,131,62);"/>
                    </g>
                    <g transform="matrix(1.11325,0,0,1.05042,4.59701,-76.092)">
                        <ellipse cx="1337.14" cy="729.241" rx="31.303" ry="28.271" style="fill:rgb(217,131,62);"/>
                    </g>
                    <g transform="matrix(1.63074,0,0,1.07933,-641.053,-51.9821)">
                        <ellipse cx="1337.14" cy="729.241" rx="31.303" ry="28.271" style="fill:rgb(217,131,62);"/>
                    </g>
                    <g transform="matrix(0.933859,0,0,0.881152,18.822,106.153)">
                        <ellipse cx="1337.14" cy="729.241" rx="31.303" ry="28.271" style="fill:rgb(139,75,43);"/>
                    </g>
                    <g transform="matrix(1.11325,0,0,1.05042,143.062,-20.3927)">
                        <ellipse cx="1337.14" cy="729.241" rx="31.303" ry="28.271" style="fill:rgb(217,131,62);"/>
                    </g>
                    <g transform="matrix(0.933859,0,0,0.881152,387.569,99.2203)">
                        <ellipse cx="1337.14" cy="729.241" rx="31.303" ry="28.271" style="fill:rgb(139,75,43);"/>
                    </g>
                    <g transform="matrix(1.39214,0,0,1.31357,-263.701,-131.182)">
                        <ellipse cx="1337.14" cy="729.241" rx="31.303" ry="28.271" style="fill:rgb(139,75,43);"/>
                    </g>
                    <g transform="matrix(1.54833,0,0,1.46094,-592.19,-163.97)">
                        <ellipse cx="1337.14" cy="729.241" rx="31.303" ry="28.271" style="fill:rgb(139,75,43);"/>
                    </g>
                    <g transform="matrix(1.94456,0,0,1.74233,-1285.68,-426.196)">
                        <ellipse cx="1337.14" cy="729.241" rx="31.303" ry="28.271" style="fill:rgb(139,75,43);"/>
                    </g>
                    <g transform="matrix(1.99982,0,0,1.98088,-1137.19,-744.593)">
                        <ellipse cx="1337.14" cy="729.241" rx="31.303" ry="28.271" style="fill:rgb(139,75,43);"/>
                    </g>
                    <g transform="matrix(1.63033,0,0,1.53831,-817.876,-420.907)">
                        <ellipse cx="1337.14" cy="729.241" rx="31.303" ry="28.271" style="fill:rgb(139,75,43);"/>
                    </g>
                </g>
                <g transform="matrix(1.10544,0,0,0.977882,-1412.01,12.0571)">
                    <rect x="2333.93" y="539.884" width="484.919" height="484.819" style="fill:url(#_Linear2);"/>
                </g>
                <g transform="matrix(1.12797,0,0,0.99761,-1470.8,7.01894)">
                    <path d="M2709,571.607C2727.12,571.607 2744.49,578.803 2757.3,591.613C2770.11,604.422 2777.31,621.796 2777.31,639.912L2777.31,903.836C2777.31,921.951 2770.11,939.325 2757.3,952.134C2744.49,964.944 2727.12,972.14 2709,972.14L2445.08,972.14C2426.96,972.14 2409.59,964.944 2396.78,952.134C2383.97,939.325 2376.77,921.951 2376.77,903.836L2376.77,639.912C2376.77,621.796 2383.97,604.422 2396.78,591.613C2409.59,578.803 2426.96,571.607 2445.08,571.607L2709,571.607Z" style="fill:rgb(34,36,38);"/>
                </g>
                <g transform="matrix(0.963486,0,0,0.852135,-683.989,662.989)">
                    <g transform="matrix(192,0,0,192,2014.09,201.05)">
                        <path d="M0.316,0.014C0.258,0.014 0.203,0.007 0.15,-0.007C0.097,-0.022 0.054,-0.04 0.021,-0.063L0.086,-0.209C0.117,-0.189 0.154,-0.172 0.195,-0.159C0.236,-0.147 0.277,-0.14 0.317,-0.14C0.345,-0.14 0.367,-0.143 0.383,-0.148C0.399,-0.152 0.411,-0.159 0.419,-0.168C0.427,-0.176 0.431,-0.186 0.431,-0.197C0.431,-0.213 0.423,-0.226 0.409,-0.235C0.395,-0.244 0.376,-0.252 0.352,-0.258C0.329,-0.264 0.303,-0.27 0.275,-0.276C0.246,-0.282 0.218,-0.29 0.19,-0.299C0.161,-0.308 0.135,-0.32 0.112,-0.335C0.088,-0.35 0.069,-0.37 0.055,-0.395C0.041,-0.419 0.033,-0.45 0.033,-0.487C0.033,-0.529 0.045,-0.567 0.068,-0.601C0.091,-0.635 0.125,-0.663 0.171,-0.683C0.217,-0.704 0.274,-0.714 0.343,-0.714C0.389,-0.714 0.434,-0.709 0.478,-0.699C0.523,-0.688 0.562,-0.673 0.597,-0.653L0.536,-0.506C0.503,-0.524 0.47,-0.538 0.437,-0.546C0.404,-0.555 0.373,-0.56 0.342,-0.56C0.315,-0.56 0.293,-0.557 0.276,-0.551C0.259,-0.545 0.247,-0.538 0.24,-0.529C0.233,-0.519 0.229,-0.509 0.229,-0.497C0.229,-0.482 0.236,-0.47 0.251,-0.461C0.265,-0.452 0.284,-0.444 0.308,-0.439C0.331,-0.433 0.357,-0.427 0.385,-0.421C0.414,-0.415 0.442,-0.408 0.47,-0.399C0.498,-0.39 0.524,-0.378 0.548,-0.363C0.571,-0.348 0.59,-0.328 0.605,-0.304C0.619,-0.279 0.626,-0.249 0.626,-0.212C0.626,-0.171 0.615,-0.134 0.592,-0.1C0.569,-0.065 0.534,-0.038 0.489,-0.017C0.443,0.003 0.385,0.014 0.316,0.014Z" style="fill:white;fill-rule:nonzero;"/>
                    </g>
                    <g transform="matrix(192,0,0,192,2138.33,201.05)">
                        <path d="M0.07,-0L0.07,-0.7L0.268,-0.7L0.268,-0.157L0.602,-0.157L0.602,-0L0.07,-0Z" style="fill:white;fill-rule:nonzero;"/>
                    </g>
                    <g transform="matrix(192,0,0,192,2255.54,201.05)">
                        <path d="M0.035,-0L0.035,-0.124L0.447,-0.613L0.471,-0.543L0.044,-0.543L0.044,-0.7L0.647,-0.7L0.647,-0.576L0.235,-0.087L0.211,-0.157L0.662,-0.157L0.662,-0L0.035,-0Z" style="fill:white;fill-rule:nonzero;"/>
                    </g>
                    <g transform="matrix(192,0,0,192,2385.83,201.05)">
                    </g>
                </g>
            </g>
        </g>
    </g>
    <defs>
        <linearGradient id="_Linear2" x1="0" y1="0" x2="1" y2="0" gradientUnits="userSpaceOnUse" gradientTransform="matrix(484.919,484.819,-484.919,484.819,2333.93,539.884)"><stop offset="0" style="stop-color:rgb(0,191,255);stop-opacity:1"/><stop offset="1" style="stop-color:rgb(0,123,255);stop-opacity:1"/></linearGradient>
    </defs>
</svg>
