<?xml version="1.0" encoding="UTF-8" standalone="no"?>
<!DOCTYPE svg PUBLIC "-//W3C//DTD SVG 1.1//EN" "http://www.w3.org/Graphics/SVG/1.1/DTD/svg11.dtd">
<svg width="100%" height="100%" viewBox="0 0 501 500" version="1.1" xmlns="http://www.w3.org/2000/svg" xmlns:xlink="http://www.w3.org/1999/xlink" xml:space="preserve" xmlns:serif="http://www.serif.com/" style="fill-rule:evenodd;clip-rule:evenodd;stroke-linejoin:round;stroke-miterlimit:2;">
    <g transform="matrix(1,0,0,1,-1715,0)">
        <g id="logo_head" transform="matrix(0.932754,0,0,1.05464,626.131,-569.506)">
            <rect x="1168" y="540" width="536.047" height="474.095" style="fill:none;"/>
            <clipPath id="_clip1">
                <rect x="1168" y="540" width="536.047" height="474.095"/>
            </clipPath>
            <g clip-path="url(#_clip1)">
                <g transform="matrix(1.12797,0,0,0.99761,-1470.8,5.12256)">
                    <path d="M2709,571.607C2727.12,571.607 2744.49,578.803 2757.3,591.613C2770.11,604.422 2777.31,621.796 2777.31,639.912L2777.31,903.836C2777.31,921.951 2770.11,939.325 2757.3,952.134C2744.49,964.944 2727.12,972.14 2709,972.14L2445.08,972.14C2426.96,972.14 2409.59,964.944 2396.78,952.134C2383.97,939.325 2376.77,921.951 2376.77,903.836L2376.77,639.912C2376.77,621.796 2383.97,604.422 2396.78,591.613C2409.59,578.803 2426.96,571.607 2445.08,571.607L2709,571.607Z" style="fill:rgb(34,36,38);"/>
                </g>
                <g transform="matrix(1.1126,0.00363805,-0.00465096,1.1126,-228.193,-45.6752)">
                    <g transform="matrix(1.07209,0,0,0.948191,-64.798,33.9485)">
                        <rect x="1212.45" y="940.319" width="30.374" height="30.374" style="fill:rgb(40,29,11);"/>
                    </g>
                    <g transform="matrix(1.07209,0,0,0.948191,-64.798,5.14816)">
                        <rect x="1212.45" y="940.319" width="30.374" height="30.374" style="fill:rgb(137,101,39);"/>
                    </g>
                    <g transform="matrix(1.07209,0,0,0.948191,0.329615,-52.4526)">
                        <rect x="1212.45" y="940.319" width="30.374" height="30.374" style="fill:rgb(137,101,39);"/>
                    </g>
                    <g transform="matrix(1.07209,0,0,0.948191,98.021,-138.055)">
                        <rect x="1212.45" y="940.319" width="30.374" height="30.374" style="fill:rgb(137,101,39);"/>
                    </g>
                    <g transform="matrix(1.07209,0,0,0.948191,-32.2342,-23.6522)">
                        <rect x="1212.45" y="940.319" width="30.374" height="30.374" style="fill:rgb(104,77,30);"/>
                    </g>
                    <g transform="matrix(1.07209,0,0,0.948191,32.8934,-81.2529)">
                        <rect x="1212.45" y="940.319" width="30.374" height="30.374" style="fill:rgb(104,77,30);"/>
                    </g>
                    <g transform="matrix(1.07209,0,0,0.948191,65.4572,-109.255)">
                        <rect x="1212.45" y="940.319" width="30.374" height="30.374" style="fill:rgb(104,77,30);"/>
                    </g>
                    <g transform="matrix(1.07209,0,0,0.948191,130.585,-166.856)">
                        <rect x="1212.45" y="940.319" width="30.374" height="30.374" style="fill:rgb(104,77,30);"/>
                    </g>
                    <g transform="matrix(1.07209,0,0,0.948191,228.276,-253.257)">
                        <rect x="1212.45" y="940.319" width="30.374" height="30.374" style="fill:rgb(104,77,30);"/>
                    </g>
                    <g transform="matrix(1.07209,0,0,0.948191,-32.2342,5.14816)">
                        <rect x="1212.45" y="940.319" width="30.374" height="30.374" style="fill:rgb(74,54,21);"/>
                    </g>
                    <g transform="matrix(1.07209,0,0,0.948191,0.329615,-23.6522)">
                        <rect x="1212.45" y="940.319" width="30.374" height="30.374" style="fill:rgb(74,54,21);"/>
                    </g>
                    <g transform="matrix(1.07209,0,0,0.948191,32.8934,-52.4526)">
                        <rect x="1212.45" y="940.319" width="30.374" height="30.374" style="fill:rgb(74,54,21);"/>
                    </g>
                    <g transform="matrix(1.07209,0,0,0.948191,65.4572,-80.4545)">
                        <rect x="1212.45" y="940.319" width="30.374" height="30.374" style="fill:rgb(74,54,21);"/>
                    </g>
                    <g transform="matrix(1.07209,0,0,0.948191,98.021,-109.255)">
                        <rect x="1212.45" y="940.319" width="30.374" height="30.374" style="fill:rgb(74,54,21);"/>
                    </g>
                    <g transform="matrix(1.07209,0,0,0.948191,130.585,-138.055)">
                        <rect x="1212.45" y="940.319" width="30.374" height="30.374" style="fill:rgb(74,54,21);"/>
                    </g>
                    <g transform="matrix(1.07209,0,0,0.948191,163.149,-166.856)">
                        <rect x="1212.45" y="940.319" width="30.374" height="30.374" style="fill:rgb(74,54,21);"/>
                    </g>
                    <g transform="matrix(1.07209,0,0,0.948191,228.276,-224.456)">
                        <rect x="1212.45" y="940.319" width="30.374" height="30.374" style="fill:rgb(74,54,21);"/>
                    </g>
                    <g transform="matrix(1.07209,0,0,0.948191,163.149,-138.055)">
                        <path d="M1242.82,1001.07L1212.45,1001.07L1212.45,940.319L1242.82,940.319L1242.82,1001.07ZM1242.82,1001.07L1273.2,1001.07L1273.2,1031.44L1242.82,1031.44L1242.82,1001.07Z" style="fill:rgb(28,94,32);"/>
                    </g>
                    <g transform="matrix(1.07209,0,0,0.948191,228.276,-80.4545)">
                        <path d="M1242.82,940.319L1242.82,970.693L1212.45,970.693L1212.45,940.319L1242.82,940.319ZM1273.2,909.945L1273.2,879.571L1303.57,879.571L1303.57,909.945L1273.2,909.945ZM1242.82,940.319L1242.82,909.945L1273.2,909.945L1273.2,940.319L1242.82,940.319ZM1303.57,818.822L1242.82,818.822L1242.82,788.448L1303.57,788.448L1303.57,818.822ZM1303.57,879.571L1303.57,818.822L1333.94,818.822L1333.94,879.571L1303.57,879.571Z" style="fill:rgb(28,94,32);"/>
                    </g>
                    <g transform="matrix(1.07209,0,0,0.948191,163.149,-195.656)">
                        <path d="M1212.45,940.319L1182.08,940.319L1182.08,879.571L1242.82,879.571L1242.82,909.945L1212.45,909.945L1212.45,940.319ZM1242.82,909.945L1273.2,909.945L1273.2,940.319L1242.82,940.319L1242.82,909.945ZM1273.2,940.319L1303.57,940.319L1303.57,970.693L1333.94,970.693L1333.94,1001.07L1303.57,1001.07L1303.57,1031.44L1273.2,1031.44L1273.2,1001.07L1242.82,1001.07L1242.82,970.693L1273.2,970.693L1273.2,940.319ZM1242.82,970.693L1212.45,970.693L1212.45,940.319L1242.82,940.319L1242.82,970.693Z" style="fill:rgb(67,159,71);"/>
                    </g>
                    <g transform="matrix(1.07209,0,0,0.948191,195.712,-195.656)">
                        <path d="M1212.45,940.319L1242.82,940.319L1242.82,970.693L1212.45,970.693L1212.45,940.319ZM1212.45,940.319L1182.08,940.319L1182.08,909.945L1212.45,909.945L1212.45,940.319Z" style="fill:rgb(56,141,61);"/>
                    </g>
                    <g transform="matrix(1.07209,0,0,0.948191,195.712,-138.055)">
                        <path d="M1242.82,940.319L1242.82,970.693L1212.45,970.693L1212.45,940.319L1242.82,940.319ZM1303.57,879.571L1303.57,909.945L1273.2,909.945L1273.2,879.571L1303.57,879.571Z" style="fill:rgb(48,200,82);"/>
                    </g>
                    <g transform="matrix(1.07209,0,0,0.948191,195.712,-109.255)">
                        <path d="M1303.57,909.945L1303.57,849.196L1333.94,849.196L1333.94,909.945L1303.57,909.945ZM1273.2,970.693L1212.45,970.693L1212.45,940.319L1273.2,940.319L1273.2,970.693ZM1273.2,940.319L1273.2,909.945L1303.57,909.945L1303.57,940.319L1273.2,940.319Z" style="fill:rgb(55,230,117);"/>
                    </g>
                    <g transform="matrix(1.07209,0,0,0.948191,-64.798,-23.6522)">
                        <rect x="1212.45" y="940.319" width="30.374" height="30.374" style="fill:rgb(40,28,12);"/>
                    </g>
                    <g transform="matrix(1.07209,0,0,0.948191,-32.2342,-52.4526)">
                        <rect x="1212.45" y="940.319" width="30.374" height="30.374" style="fill:rgb(40,28,12);"/>
                    </g>
                    <g transform="matrix(1.07209,0,0,0.948191,0.329615,-81.2529)">
                        <rect x="1212.45" y="940.319" width="30.374" height="30.374" style="fill:rgb(40,28,12);"/>
                    </g>
                    <g transform="matrix(1.07209,0,0,0.948191,32.8934,-109.255)">
                        <rect x="1212.45" y="940.319" width="30.374" height="30.374" style="fill:rgb(40,28,12);"/>
                    </g>
                    <g transform="matrix(1.07209,0,0,0.948191,65.4572,-138.055)">
                        <rect x="1212.45" y="940.319" width="30.374" height="30.374" style="fill:rgb(40,28,12);"/>
                    </g>
                    <g transform="matrix(1.07209,0,0,0.948191,98.021,-166.856)">
                        <rect x="1212.45" y="940.319" width="30.374" height="30.374" style="fill:rgb(40,28,12);"/>
                    </g>
                    <g transform="matrix(1.07209,0,0,0.948191,130.585,-195.656)">
                        <rect x="1212.45" y="940.319" width="30.374" height="30.374" style="fill:rgb(40,28,12);"/>
                    </g>
                    <g transform="matrix(1.07209,0,0,0.948191,195.712,-253.257)">
                        <rect x="1212.45" y="940.319" width="30.374" height="30.374" style="fill:rgb(40,28,12);"/>
                    </g>
                    <g transform="matrix(1.07209,0,0,0.948191,163.149,-282.057)">
                        <path d="M1182.08,970.693L1182.08,940.319L1242.82,940.319L1242.82,970.693L1182.08,970.693ZM1182.08,970.693L1182.08,1031.44L1151.7,1031.44L1151.7,970.693L1182.08,970.693Z" style="fill:rgb(28,94,32);"/>
                    </g>
                </g>
                <g transform="matrix(1.10544,0,0,0.977882,-1412.01,12.0571)">
                    <path d="M2818.85,539.884L2818.85,1024.7L2333.93,1024.7L2333.93,539.884L2818.85,539.884ZM2711.04,576.047L2441.74,576.047C2423.26,576.047 2405.53,583.389 2392.46,596.457C2379.39,609.525 2372.04,627.249 2372.04,645.73L2372.04,914.979C2372.04,933.46 2379.39,951.184 2392.46,964.252C2405.53,977.32 2423.26,984.661 2441.74,984.661L2711.04,984.661C2729.53,984.661 2747.26,977.32 2760.33,964.252C2773.4,951.184 2780.74,933.46 2780.74,914.979L2780.74,645.73C2780.74,627.249 2773.4,609.525 2760.33,596.457C2747.26,583.389 2729.53,576.047 2711.04,576.047Z" style="fill:url(#_Linear2);"/>
                </g>
            </g>
        </g>
    </g>
    <defs>
        <linearGradient id="_Linear2" x1="0" y1="0" x2="1" y2="0" gradientUnits="userSpaceOnUse" gradientTransform="matrix(484.919,484.819,-484.919,484.819,2333.93,539.884)"><stop offset="0" style="stop-color:rgb(0,210,106);stop-opacity:1"/><stop offset="1" style="stop-color:rgb(0,178,79);stop-opacity:1"/></linearGradient>
    </defs>
</svg>
