<?xml version="1.0" encoding="UTF-8" standalone="no"?>
<!DOCTYPE svg PUBLIC "-//W3C//DTD SVG 1.1//EN" "http://www.w3.org/Graphics/SVG/1.1/DTD/svg11.dtd">
<svg width="100%" height="100%" viewBox="0 0 3461 501" version="1.1" xmlns="http://www.w3.org/2000/svg" xmlns:xlink="http://www.w3.org/1999/xlink" xml:space="preserve" xmlns:serif="http://www.serif.com/" style="fill-rule:evenodd;clip-rule:evenodd;stroke-linejoin:round;stroke-miterlimit:2;">
    <g transform="matrix(1,0,0,1,0,-3360)">
        <g id="Z-long-purple" serif:id="Z long purple" transform="matrix(6.45585,0,0,1.05464,-7540.43,2791.09)">
            <rect x="1168" y="540" width="536.047" height="474.095" style="fill:none;"/>
            <clipPath id="_clip1">
                <rect x="1168" y="540" width="536.047" height="474.095"/>
            </clipPath>
            <g clip-path="url(#_clip1)">
                <g transform="matrix(0.158173,0,0,0.968237,1113.43,-1039.84)">
                    <g transform="matrix(383.686,0,0,383.686,852.553,1999.97)">
                        <path d="M0.185,-0C0.16,-0 0.138,-0.006 0.118,-0.018C0.098,-0.031 0.082,-0.047 0.069,-0.067C0.057,-0.087 0.051,-0.109 0.051,-0.134L0.051,-0.446C0.051,-0.471 0.057,-0.493 0.069,-0.513C0.082,-0.533 0.098,-0.549 0.118,-0.562C0.138,-0.574 0.16,-0.58 0.185,-0.58L0.506,-0.58C0.531,-0.58 0.554,-0.574 0.574,-0.562C0.594,-0.55 0.61,-0.533 0.622,-0.513C0.634,-0.493 0.64,-0.47 0.64,-0.446L0.64,-0.23L0.17,-0.23L0.17,-0.138C0.17,-0.133 0.172,-0.128 0.176,-0.125C0.179,-0.121 0.184,-0.119 0.189,-0.119L0.64,-0.119L0.64,-0L0.185,-0ZM0.17,-0.339L0.521,-0.339L0.521,-0.442C0.521,-0.447 0.519,-0.452 0.515,-0.455C0.511,-0.459 0.507,-0.461 0.502,-0.461L0.189,-0.461C0.184,-0.461 0.179,-0.459 0.176,-0.455C0.172,-0.452 0.17,-0.447 0.17,-0.442L0.17,-0.339Z" style="fill:white;fill-rule:nonzero;"/>
                    </g>
                    <g transform="matrix(383.686,0,0,383.686,1118.06,1999.97)">
                        <path d="M0.187,-0C0.162,-0 0.14,-0.006 0.119,-0.018C0.099,-0.031 0.083,-0.047 0.071,-0.067C0.059,-0.087 0.053,-0.109 0.053,-0.134L0.053,-0.761L0.172,-0.761L0.172,-0.58L0.404,-0.58L0.404,-0.461L0.172,-0.461L0.172,-0.138C0.172,-0.133 0.174,-0.128 0.178,-0.125C0.181,-0.121 0.186,-0.119 0.191,-0.119L0.404,-0.119L0.404,-0L0.187,-0Z" style="fill:white;fill-rule:nonzero;"/>
                    </g>
                    <g transform="matrix(383.686,0,0,383.686,1289.81,1999.97)">
                        <path d="M0.186,-0C0.161,-0 0.139,-0.006 0.119,-0.018C0.098,-0.031 0.082,-0.047 0.07,-0.067C0.058,-0.087 0.052,-0.109 0.052,-0.134L0.052,-0.35L0.522,-0.35L0.522,-0.442C0.522,-0.447 0.52,-0.452 0.516,-0.455C0.512,-0.459 0.508,-0.461 0.503,-0.461L0.052,-0.461L0.052,-0.58L0.507,-0.58C0.532,-0.58 0.555,-0.574 0.575,-0.562C0.595,-0.55 0.611,-0.533 0.623,-0.513C0.635,-0.493 0.641,-0.47 0.641,-0.446L0.641,-0L0.186,-0ZM0.19,-0.119L0.522,-0.119L0.522,-0.241L0.171,-0.241L0.171,-0.138C0.171,-0.133 0.173,-0.128 0.177,-0.125C0.18,-0.121 0.185,-0.119 0.19,-0.119Z" style="fill:white;fill-rule:nonzero;"/>
                    </g>
                    <g transform="matrix(383.686,0,0,383.686,1556.08,1999.97)">
                    </g>
                    <g transform="matrix(383.686,0,0,383.686,1670.56,1999.97)">
                        <path d="M0.056,-0L0.056,-0.719L0.641,-0.719C0.665,-0.719 0.688,-0.713 0.708,-0.701C0.729,-0.688 0.745,-0.672 0.758,-0.652C0.77,-0.631 0.776,-0.609 0.776,-0.584L0.776,-0.386C0.776,-0.362 0.77,-0.34 0.758,-0.319C0.745,-0.299 0.729,-0.282 0.708,-0.27C0.688,-0.258 0.665,-0.252 0.641,-0.252L0.176,-0.251L0.176,-0L0.056,-0ZM0.194,-0.373L0.637,-0.373C0.642,-0.373 0.646,-0.374 0.65,-0.378C0.653,-0.381 0.655,-0.386 0.655,-0.391L0.655,-0.581C0.655,-0.586 0.653,-0.59 0.65,-0.594C0.646,-0.597 0.642,-0.599 0.637,-0.599L0.194,-0.599C0.189,-0.599 0.185,-0.597 0.181,-0.594C0.178,-0.59 0.176,-0.586 0.176,-0.581L0.176,-0.391C0.176,-0.386 0.178,-0.381 0.181,-0.378C0.185,-0.374 0.189,-0.373 0.194,-0.373Z" style="fill:white;fill-rule:nonzero;"/>
                    </g>
                    <g transform="matrix(383.686,0,0,383.686,1974.05,1999.97)">
                        <path d="M0.186,-0C0.161,-0 0.139,-0.006 0.119,-0.018C0.099,-0.031 0.083,-0.047 0.07,-0.067C0.058,-0.087 0.052,-0.109 0.052,-0.134L0.052,-0.771L0.172,-0.771L0.172,-0.138C0.172,-0.133 0.174,-0.128 0.177,-0.125C0.181,-0.121 0.185,-0.119 0.19,-0.119L0.298,-0.119L0.298,-0L0.186,-0Z" style="fill:white;fill-rule:nonzero;"/>
                    </g>
                    <g transform="matrix(383.686,0,0,383.686,2099.31,1999.97)">
                        <path d="M0.187,-0C0.162,-0 0.14,-0.006 0.12,-0.018C0.099,-0.031 0.083,-0.047 0.071,-0.067C0.059,-0.087 0.053,-0.109 0.053,-0.134L0.053,-0.58L0.172,-0.58L0.172,-0.138C0.172,-0.133 0.174,-0.128 0.178,-0.125C0.181,-0.121 0.186,-0.119 0.191,-0.119L0.504,-0.119C0.509,-0.119 0.514,-0.121 0.517,-0.125C0.521,-0.128 0.523,-0.133 0.523,-0.138L0.523,-0.58L0.642,-0.58L0.642,-0.134C0.642,-0.109 0.636,-0.087 0.624,-0.067C0.612,-0.047 0.596,-0.031 0.576,-0.018C0.556,-0.006 0.533,-0 0.508,-0L0.187,-0Z" style="fill:white;fill-rule:nonzero;"/>
                    </g>
                    <g transform="matrix(383.686,0,0,383.686,2364.05,1999.97)">
                        <path d="M0.14,0.229L0.14,0.109L0.493,0.109C0.498,0.109 0.502,0.107 0.506,0.103C0.509,0.1 0.511,0.095 0.511,0.09L0.511,-0L0.175,-0C0.151,-0 0.128,-0.006 0.108,-0.018C0.088,-0.03 0.071,-0.047 0.059,-0.067C0.047,-0.087 0.041,-0.11 0.041,-0.134L0.041,-0.446C0.041,-0.471 0.047,-0.493 0.059,-0.513C0.072,-0.533 0.088,-0.549 0.108,-0.562C0.128,-0.574 0.151,-0.58 0.175,-0.58L0.497,-0.58C0.522,-0.58 0.544,-0.574 0.565,-0.562C0.585,-0.549 0.601,-0.533 0.613,-0.513C0.625,-0.493 0.63,-0.471 0.63,-0.446L0.63,0.095C0.63,0.12 0.625,0.142 0.613,0.162C0.601,0.183 0.585,0.199 0.564,0.211C0.544,0.223 0.522,0.229 0.497,0.229L0.14,0.229ZM0.179,-0.119L0.493,-0.119C0.498,-0.119 0.502,-0.121 0.506,-0.125C0.509,-0.128 0.511,-0.133 0.511,-0.138L0.511,-0.442C0.511,-0.447 0.509,-0.452 0.506,-0.455C0.502,-0.459 0.498,-0.461 0.493,-0.461L0.179,-0.461C0.174,-0.461 0.169,-0.459 0.166,-0.455C0.162,-0.452 0.16,-0.447 0.16,-0.442L0.16,-0.138C0.16,-0.133 0.162,-0.128 0.166,-0.125C0.169,-0.121 0.174,-0.119 0.179,-0.119Z" style="fill:white;fill-rule:nonzero;"/>
                    </g>
                    <g transform="matrix(383.686,0,0,383.686,2626.11,1999.97)">
                        <path d="M0.052,-0L0.052,-0.58L0.171,-0.58L0.171,-0L0.052,-0ZM0.052,-0.65L0.052,-0.77L0.171,-0.77L0.171,-0.65L0.052,-0.65Z" style="fill:white;fill-rule:nonzero;"/>
                    </g>
                    <g transform="matrix(383.686,0,0,383.686,2715.53,1999.97)">
                        <path d="M0.054,-0L0.054,-0.58L0.51,-0.58C0.534,-0.58 0.556,-0.574 0.577,-0.562C0.597,-0.549 0.613,-0.533 0.625,-0.513C0.637,-0.493 0.643,-0.471 0.643,-0.446L0.643,-0L0.524,-0L0.524,-0.442C0.524,-0.447 0.522,-0.452 0.519,-0.455C0.515,-0.459 0.511,-0.461 0.506,-0.461L0.192,-0.461C0.187,-0.461 0.183,-0.459 0.179,-0.455C0.175,-0.452 0.173,-0.447 0.173,-0.442L0.173,-0L0.054,-0Z" style="fill:white;fill-rule:nonzero;"/>
                    </g>
                    <g transform="matrix(383.686,0,0,383.686,2978.36,1999.97)">
                        <path d="M0.182,-0C0.157,-0 0.135,-0.006 0.115,-0.018C0.095,-0.031 0.079,-0.047 0.066,-0.067C0.054,-0.087 0.048,-0.109 0.048,-0.134L0.048,-0.153L0.167,-0.153L0.167,-0.138C0.167,-0.133 0.169,-0.128 0.173,-0.125C0.176,-0.121 0.181,-0.119 0.186,-0.119L0.499,-0.119C0.504,-0.119 0.508,-0.121 0.512,-0.125C0.516,-0.128 0.518,-0.133 0.518,-0.138L0.518,-0.212C0.518,-0.217 0.516,-0.221 0.512,-0.225C0.508,-0.228 0.504,-0.23 0.499,-0.23L0.182,-0.23C0.157,-0.23 0.135,-0.236 0.115,-0.248C0.095,-0.261 0.079,-0.277 0.066,-0.297C0.054,-0.317 0.048,-0.339 0.048,-0.364L0.048,-0.446C0.048,-0.471 0.054,-0.493 0.066,-0.513C0.079,-0.533 0.095,-0.549 0.115,-0.562C0.135,-0.574 0.157,-0.58 0.182,-0.58L0.503,-0.58C0.528,-0.58 0.551,-0.574 0.571,-0.562C0.591,-0.549 0.607,-0.533 0.62,-0.513C0.632,-0.493 0.638,-0.471 0.638,-0.446L0.638,-0.427L0.518,-0.427L0.518,-0.442C0.518,-0.447 0.516,-0.452 0.512,-0.455C0.508,-0.459 0.504,-0.461 0.499,-0.461L0.186,-0.461C0.181,-0.461 0.176,-0.459 0.173,-0.455C0.169,-0.452 0.167,-0.447 0.167,-0.442L0.167,-0.368C0.167,-0.363 0.169,-0.359 0.173,-0.355C0.176,-0.352 0.181,-0.35 0.186,-0.35L0.503,-0.35C0.528,-0.35 0.551,-0.344 0.571,-0.332C0.591,-0.319 0.607,-0.303 0.62,-0.283C0.632,-0.263 0.638,-0.241 0.638,-0.216L0.638,-0.134C0.638,-0.109 0.632,-0.087 0.62,-0.067C0.607,-0.047 0.591,-0.031 0.571,-0.018C0.551,-0.006 0.528,-0 0.503,-0L0.182,-0Z" style="fill:white;fill-rule:nonzero;"/>
                    </g>
                    <g transform="matrix(383.686,0,0,383.686,3241.57,1999.97)">
                    </g>
                </g>
                <g transform="matrix(0.169444,0,0,1.17277,955.123,-125.865)">
                    <g transform="matrix(-0.776105,-0.654146,1.50316,-1.39501,2180.72,1943.39)">
                        <path d="M1315.26,79.777C1334.05,79.788 1352.07,83.466 1365.36,90.005C1378.67,96.554 1386.14,105.437 1386.14,114.698L1386.14,336.113C1367.32,336.113 1349.27,332.433 1335.96,325.884C1322.65,319.335 1315.17,310.453 1315.17,301.191L1315.17,79.777C1315.2,79.777 1315.23,79.777 1315.26,79.777Z" style="fill:url(#_Linear2);"/>
                    </g>
                    <g transform="matrix(1.45547,0,0,1.71673,-462.723,811.94)">
                        <path d="M1299.36,54.417L1414.63,54.417C1421.47,54.417 1428.03,56.454 1432.86,60.079C1437.7,63.704 1440.41,68.621 1440.41,73.748L1440.41,73.749C1440.41,78.875 1437.7,83.792 1432.86,87.418C1428.03,91.043 1421.47,93.079 1414.63,93.079C1362.66,93.079 1250.22,93.079 1250.22,93.079L1299.36,54.417Z" style="fill:url(#_Linear3);"/>
                    </g>
                    <g transform="matrix(-1.45547,-1.57643e-16,2.37712e-16,-1.71673,3352.81,727.564)">
                        <path d="M1299.36,54.417L1414.63,54.417C1421.47,54.417 1428.03,56.454 1432.86,60.079C1437.7,63.704 1440.41,68.621 1440.41,73.748L1440.41,73.749C1440.41,78.875 1437.7,83.792 1432.86,87.418C1428.03,91.043 1421.47,93.079 1414.63,93.079C1362.66,93.079 1250.22,93.079 1250.22,93.079L1299.36,54.417Z" style="fill:url(#_Linear4);"/>
                    </g>
                </g>
            </g>
        </g>
    </g>
    <defs>
        <linearGradient id="_Linear2" x1="0" y1="0" x2="1" y2="0" gradientUnits="userSpaceOnUse" gradientTransform="matrix(-588.77,-13.7371,27.9182,-289.703,1647.38,214.489)"><stop offset="0" style="stop-color:rgb(122,97,244);stop-opacity:1"/><stop offset="1" style="stop-color:rgb(161,111,244);stop-opacity:1"/></linearGradient>
        <linearGradient id="_Linear3" x1="0" y1="0" x2="1" y2="0" gradientUnits="userSpaceOnUse" gradientTransform="matrix(299.766,235.509,-314.083,224.773,1159.3,-142.939)"><stop offset="0" style="stop-color:rgb(122,97,244);stop-opacity:1"/><stop offset="1" style="stop-color:rgb(161,111,244);stop-opacity:1"/></linearGradient>
        <linearGradient id="_Linear4" x1="0" y1="0" x2="1" y2="0" gradientUnits="userSpaceOnUse" gradientTransform="matrix(-299.766,-235.509,314.083,-224.773,1462.22,93.7897)"><stop offset="0" style="stop-color:rgb(122,97,244);stop-opacity:1"/><stop offset="1" style="stop-color:rgb(161,111,244);stop-opacity:1"/></linearGradient>
    </defs>
</svg>
