<svg id="visual" viewBox="0 0 1440 1024" width="1440" height="1024" xmlns="http://www.w3.org/2000/svg" xmlns:xlink="http://www.w3.org/1999/xlink" version="1.1"><rect x="0" y="0" width="1440" height="1024" fill="#000"></rect><defs><linearGradient id="grad1_0" x1="28.9%" y1="0%" x2="100%" y2="100%"><stop offset="21.875%" stop-color="#000000" stop-opacity="1"></stop><stop offset="78.125%" stop-color="#000000" stop-opacity="1"></stop></linearGradient></defs><defs><linearGradient id="grad2_0" x1="0%" y1="0%" x2="71.1%" y2="100%"><stop offset="21.875%" stop-color="#000000" stop-opacity="1"></stop><stop offset="78.125%" stop-color="#000000" stop-opacity="1"></stop></linearGradient></defs><g transform="translate(1440, 0)"><path d="M0 485.9C-56 465.2 -112 444.5 -176.4 425.9C-240.8 407.3 -313.7 390.8 -343.6 343.6C-373.5 296.4 -360.4 218.5 -376.9 156.1C-393.5 93.8 -439.7 46.9 -485.9 0L0 0Z" fill="#7a61f4"></path></g><g transform="translate(0, 1024)"><path d="M0 -485.9C66.6 -482.3 133.1 -478.7 186 -448.9C238.8 -419.2 277.9 -363.4 314 -314C350 -264.5 383 -221.6 411.1 -170.3C439.3 -119 462.6 -59.5 485.9 0L0 0Z" fill="#7a61f4"></path></g></svg>